<svg width="195" height="70" viewBox="0 0 195 70" fill="none" xmlns="http://www.w3.org/2000/svg">
<path d="M85.7093 31.6745C84.9183 31.6745 84.3144 31.456 83.8979 31.0189C83.4817 30.5815 83.2734 29.9673 83.2734 29.1761V11.8431C83.2734 11.0313 83.4867 10.4168 83.9135 10.0006C84.3406 9.58407 84.9495 9.37582 85.7407 9.37582H93.3297C95.7865 9.37582 97.6811 9.99529 99.0136 11.2342C100.346 12.4729 101.013 14.1957 101.013 16.4027C101.013 18.6097 100.346 20.3378 99.0136 21.587C97.6811 22.8363 95.7865 23.4611 93.3297 23.4611H88.1142V29.1761C88.1142 29.9673 87.9113 30.5815 87.5051 31.0189C87.0991 31.456 86.5005 31.6745 85.7093 31.6745ZM88.1142 19.7133H92.5176C93.7669 19.7133 94.7196 19.4321 95.3752 18.87C96.0312 18.3079 96.3592 17.4855 96.3592 16.4027C96.3592 15.3202 96.0312 14.5081 95.3752 13.9669C94.7196 13.4256 93.7669 13.1547 92.5176 13.1547H88.1142V19.7133Z" fill="white"/>
<path d="M102.324 31.6747C101.741 31.6747 101.267 31.5394 100.903 31.2688C100.538 30.9982 100.31 30.6337 100.216 30.1757C100.122 29.7177 100.21 29.2077 100.481 28.6456L108.476 11.125C108.81 10.417 109.205 9.90191 109.663 9.57895C110.121 9.25627 110.652 9.09506 111.256 9.09506C111.86 9.09506 112.391 9.25627 112.849 9.57895C113.307 9.90191 113.692 10.417 114.004 11.125L122.062 28.6456C122.332 29.2077 122.431 29.723 122.358 30.1913C122.286 30.6599 122.072 31.0241 121.718 31.2844C121.364 31.5447 120.906 31.6747 120.344 31.6747C119.636 31.6747 119.089 31.5082 118.704 31.1752C118.319 30.842 117.981 30.3216 117.689 29.6136L115.816 25.2726L117.752 26.6154H104.729L106.665 25.2726L104.822 29.6136C104.51 30.3422 104.182 30.8681 103.838 31.1908C103.495 31.5135 102.99 31.6747 102.324 31.6747ZM111.193 14.5291L107.196 24.0545L106.353 22.8365H116.128L115.285 24.0545L111.256 14.5291H111.193Z" fill="white"/>
<path d="M125.84 31.6747C125.257 31.6747 124.783 31.5394 124.419 31.2688C124.054 30.9982 123.825 30.6337 123.732 30.1757C123.638 29.7177 123.726 29.2077 123.997 28.6456L131.992 11.125C132.325 10.417 132.721 9.90191 133.179 9.57895C133.637 9.25627 134.168 9.09506 134.771 9.09506C135.375 9.09506 135.906 9.25627 136.364 9.57895C136.822 9.90191 137.208 10.417 137.52 11.125L145.577 28.6456C145.848 29.2077 145.947 29.723 145.874 30.1913C145.801 30.6599 145.588 31.0241 145.234 31.2844C144.88 31.5447 144.422 31.6747 143.86 31.6747C143.152 31.6747 142.605 31.5082 142.22 31.1752C141.835 30.842 141.497 30.3216 141.205 29.6136L139.331 25.2726L141.267 26.6154H128.244L130.181 25.2726L128.338 29.6136C128.026 30.3422 127.698 30.8681 127.354 31.1908C127.011 31.5135 126.506 31.6747 125.84 31.6747ZM134.709 14.5291L130.712 24.0545L129.868 22.8365H139.643L138.8 24.0545L134.771 14.5291H134.709Z" fill="white"/>
<path d="M150.981 31.6747C150.252 31.6747 149.695 31.4717 149.31 31.0658C148.925 30.6599 148.732 30.0822 148.732 29.3324V11.5309C148.732 10.7399 148.925 10.1361 149.31 9.71955C149.695 9.30332 150.211 9.09506 150.856 9.09506C151.418 9.09506 151.85 9.2042 152.152 9.42304C152.454 9.64159 152.803 10.0007 153.198 10.5005L164.16 24.4604H163.317V11.4062C163.317 10.6773 163.51 10.1099 163.895 9.70396C164.28 9.29803 164.837 9.09506 165.566 9.09506C166.295 9.09506 166.851 9.29803 167.237 9.70396C167.622 10.1099 167.814 10.6773 167.814 11.4062V29.4262C167.814 30.1134 167.637 30.6599 167.283 31.0658C166.93 31.4717 166.451 31.6747 165.847 31.6747C165.264 31.6747 164.801 31.5603 164.457 31.3312C164.114 31.1023 163.744 30.7378 163.348 30.2381L152.418 16.2781H153.23V29.3324C153.23 30.0822 153.042 30.6599 152.668 31.0658C152.293 31.4717 151.731 31.6747 150.981 31.6747Z" fill="white"/>
<path d="M85.05 55.9754C84.567 55.9754 84.1744 55.8632 83.8726 55.6391C83.5708 55.415 83.3809 55.1129 83.3033 54.7334C83.2259 54.3539 83.2991 53.9313 83.5232 53.4655L90.1472 38.9499C90.4234 38.3632 90.7511 37.9364 91.1306 37.6689C91.5101 37.4016 91.95 37.268 92.4503 37.268C92.9506 37.268 93.3902 37.4016 93.77 37.6689C94.1494 37.9364 94.4685 38.3632 94.7271 38.9499L101.403 53.4655C101.627 53.9313 101.709 54.3584 101.649 54.7465C101.588 55.1346 101.412 55.4364 101.118 55.6519C100.825 55.8677 100.445 55.9754 99.9797 55.9754C99.3934 55.9754 98.9404 55.8373 98.6213 55.5614C98.3022 55.2855 98.0219 54.8542 97.7805 54.2676L96.2281 50.6711L97.8323 51.7836H87.0424L88.6466 50.6711L87.12 54.2676C86.8611 54.8715 86.5894 55.3069 86.3048 55.5745C86.0203 55.8418 85.6018 55.9754 85.05 55.9754ZM92.3985 41.7702L89.0865 49.6621L88.3879 48.6529H96.4867L95.7882 49.6621L92.4503 41.7702H92.3985Z" fill="white"/>
<path d="M109.735 56.0261C108.355 56.0261 107.152 55.7544 106.125 55.2112C105.099 54.6677 104.31 53.8957 103.758 52.8953C103.206 51.8947 102.93 50.7131 102.93 49.3503C102.93 48.3327 103.085 47.4184 103.395 46.6076C103.706 45.7969 104.159 45.107 104.754 44.5376C105.349 43.9683 106.069 43.5328 106.915 43.231C107.76 42.929 108.7 42.7781 109.735 42.7781C110.27 42.7781 110.839 42.8429 111.443 42.9721C112.046 43.1016 112.642 43.3215 113.228 43.632C113.573 43.7873 113.81 44.0073 113.94 44.2918C114.069 44.5763 114.116 44.8698 114.082 45.1716C114.047 45.4734 113.94 45.7409 113.758 45.9737C113.577 46.2064 113.349 46.3618 113.073 46.4395C112.797 46.5172 112.486 46.4695 112.141 46.2972C111.814 46.1073 111.473 45.9692 111.119 45.8832C110.766 45.7969 110.433 45.7537 110.123 45.7537C109.605 45.7537 109.148 45.8356 108.752 45.9996C108.355 46.1636 108.023 46.3963 107.755 46.6981C107.488 46.9999 107.281 47.3752 107.134 47.8238C106.988 48.2723 106.915 48.7899 106.915 49.3762C106.915 50.5146 107.195 51.4075 107.755 52.0543C108.316 52.7013 109.105 53.0245 110.123 53.0245C110.433 53.0245 110.761 52.9858 111.106 52.9081C111.451 52.8305 111.796 52.6968 112.141 52.5072C112.486 52.3346 112.797 52.2915 113.073 52.3778C113.349 52.4641 113.569 52.6236 113.732 52.8564C113.896 53.0894 113.991 53.3567 114.017 53.6585C114.043 53.9606 113.991 54.2537 113.862 54.5383C113.732 54.8228 113.504 55.0427 113.176 55.1981C112.59 55.4913 112.003 55.7026 111.417 55.832C110.83 55.9615 110.27 56.0261 109.735 56.0261Z" fill="white"/>
<path d="M120.159 56.0261C119.228 56.0261 118.391 55.8449 117.649 55.4826C116.908 55.1204 116.33 54.6287 115.916 54.0079C115.502 53.3867 115.295 52.6882 115.295 51.912C115.295 50.9804 115.537 50.2432 116.019 49.6997C116.502 49.1562 117.287 48.7681 118.374 48.5354C119.461 48.3023 120.901 48.186 122.695 48.186H124.067V50.2042H122.721C121.841 50.2042 121.13 50.2518 120.586 50.3465C120.043 50.4414 119.655 50.6009 119.422 50.8253C119.189 51.0495 119.073 51.3599 119.073 51.7566C119.073 52.2397 119.241 52.6364 119.577 52.9471C119.914 53.2576 120.401 53.4126 121.039 53.4126C121.539 53.4126 121.984 53.2963 122.372 53.0635C122.76 52.8305 123.066 52.5114 123.29 52.106C123.515 51.7007 123.627 51.2393 123.627 50.7218V47.7461C123.627 46.9871 123.454 46.4481 123.109 46.129C122.764 45.8097 122.178 45.6502 121.35 45.6502C120.884 45.6502 120.379 45.7064 119.836 45.8183C119.293 45.9305 118.693 46.116 118.038 46.3749C117.658 46.5472 117.322 46.5859 117.029 46.4913C116.735 46.3963 116.511 46.2237 116.356 45.9737C116.201 45.7237 116.123 45.4475 116.123 45.1457C116.123 44.8439 116.209 44.5504 116.382 44.2659C116.554 43.9814 116.839 43.77 117.235 43.632C118.046 43.3043 118.81 43.0801 119.525 42.9593C120.242 42.8385 120.901 42.7781 121.505 42.7781C122.833 42.7781 123.924 42.9721 124.778 43.3602C125.632 43.7483 126.274 44.3436 126.706 45.1457C127.137 45.9478 127.353 46.9785 127.353 48.2378V53.982C127.353 54.6201 127.197 55.1118 126.887 55.4567C126.577 55.802 126.128 55.9743 125.541 55.9743C124.955 55.9743 124.502 55.802 124.183 55.4567C123.864 55.1118 123.704 54.6201 123.704 53.982V53.0245L123.885 53.1799C123.782 53.7665 123.562 54.271 123.226 54.6936C122.889 55.1163 122.462 55.4439 121.945 55.6767C121.427 55.9097 120.832 56.0261 120.159 56.0261Z" fill="white"/>
<path d="M135.221 56.0273C134.117 56.0273 133.147 55.76 132.31 55.2252C131.474 54.6904 130.823 53.9228 130.357 52.9224C129.891 51.9218 129.658 50.7402 129.658 49.3774C129.658 48.0148 129.891 46.8416 130.357 45.8585C130.823 44.8752 131.474 44.1162 132.31 43.5814C133.147 43.0468 134.117 42.7793 135.221 42.7793C136.222 42.7793 137.106 43.0209 137.874 43.5037C138.641 43.9867 139.163 44.6165 139.439 45.3927H139.154V39.2604C139.154 38.6047 139.318 38.1089 139.646 37.7725C139.974 37.4362 140.457 37.2681 141.095 37.2681C141.716 37.2681 142.199 37.4362 142.544 37.7725C142.889 38.1089 143.062 38.6047 143.062 39.2604V53.9832C143.062 54.6213 142.893 55.113 142.557 55.4579C142.221 55.8032 141.742 55.9755 141.121 55.9755C140.5 55.9755 140.021 55.8032 139.685 55.4579C139.348 55.113 139.18 54.6213 139.18 53.9832V52.2236L139.465 53.2329C139.223 54.0781 138.71 54.7552 137.925 55.2639C137.14 55.7728 136.239 56.0273 135.221 56.0273ZM136.386 53.1034C136.955 53.1034 137.447 52.9653 137.861 52.6894C138.275 52.4135 138.602 52.0037 138.844 51.4605C139.085 50.917 139.206 50.2227 139.206 49.3774C139.206 48.1181 138.947 47.191 138.43 46.5957C137.912 46.0008 137.231 45.7032 136.386 45.7032C135.834 45.7032 135.346 45.8326 134.924 46.0913C134.501 46.3502 134.174 46.7511 133.94 47.2946C133.708 47.8378 133.591 48.5321 133.591 49.3774C133.591 50.6367 133.85 51.5724 134.368 52.1849C134.885 52.7971 135.558 53.1034 136.386 53.1034Z" fill="white"/>
<path d="M152.66 56.0261C151.16 56.0261 149.87 55.7544 148.792 55.2112C147.714 54.6677 146.886 53.9001 146.308 52.9081C145.73 51.9164 145.441 50.7477 145.441 49.4021C145.441 48.091 145.717 46.9398 146.269 45.9478C146.821 44.9558 147.593 44.1796 148.585 43.6191C149.577 43.0584 150.703 42.7781 151.962 42.7781C152.876 42.7781 153.704 42.929 154.446 43.231C155.188 43.5328 155.826 43.9641 156.361 44.5248C156.895 45.0853 157.301 45.7666 157.577 46.5689C157.853 47.3711 157.991 48.2636 157.991 49.247C157.991 49.5747 157.887 49.8205 157.68 49.9842C157.473 50.1482 157.171 50.2301 156.775 50.2301H148.65V48.2119H155.17L154.756 48.5741C154.756 47.8669 154.653 47.2761 154.446 46.8017C154.239 46.3273 153.941 45.9692 153.553 45.7279C153.165 45.4865 152.686 45.3656 152.117 45.3656C151.479 45.3656 150.935 45.5124 150.487 45.8055C150.039 46.0987 149.693 46.5213 149.452 47.0734C149.211 47.6252 149.09 48.2895 149.09 49.0658V49.2726C149.09 50.5837 149.396 51.5498 150.008 52.1706C150.621 52.7918 151.531 53.1022 152.738 53.1022C153.152 53.1022 153.626 53.0504 154.161 52.9471C154.696 52.8436 155.196 52.6796 155.662 52.4554C156.059 52.2656 156.412 52.201 156.723 52.2614C157.033 52.3218 157.275 52.4641 157.447 52.6882C157.62 52.9126 157.719 53.1712 157.745 53.4644C157.771 53.7579 157.706 54.0466 157.551 54.3314C157.396 54.6159 157.137 54.8531 156.775 55.0427C156.188 55.3707 155.528 55.6166 154.795 55.7803C154.062 55.9442 153.351 56.0261 152.66 56.0261Z" fill="white"/>
<path d="M162.285 55.9743C161.646 55.9743 161.159 55.802 160.823 55.4568C160.487 55.1118 160.318 54.6201 160.318 53.982V44.7963C160.318 44.1582 160.487 43.6709 160.823 43.3343C161.159 42.998 161.629 42.8298 162.233 42.8298C162.854 42.8298 163.328 42.998 163.656 43.3343C163.984 43.6709 164.148 44.1582 164.148 44.7963V46.4523L163.863 45.4174C164.208 44.6239 164.743 43.9855 165.467 43.5025C166.192 43.0197 167.046 42.7781 168.029 42.7781C169.012 42.7781 169.831 43.0111 170.487 43.4769C171.143 43.9424 171.608 44.6585 171.884 45.6243H171.522C171.901 44.7445 172.484 44.0504 173.269 43.5415C174.054 43.0325 174.955 42.7781 175.972 42.7781C176.956 42.7781 177.762 42.9721 178.392 43.3602C179.022 43.7483 179.492 44.3349 179.802 45.1198C180.112 45.9046 180.268 46.9008 180.268 48.1083V53.982C180.268 54.6201 180.1 55.1118 179.763 55.4568C179.427 55.802 178.948 55.9743 178.327 55.9743C177.689 55.9743 177.202 55.802 176.865 55.4568C176.529 55.1118 176.361 54.6201 176.361 53.982V48.2378C176.361 47.3925 176.227 46.7758 175.96 46.3877C175.692 45.9996 175.239 45.8055 174.601 45.8055C173.86 45.8055 173.282 46.0642 172.868 46.5817C172.454 47.0993 172.247 47.8324 172.247 48.7812V53.982C172.247 54.6201 172.078 55.1118 171.742 55.4568C171.406 55.802 170.927 55.9743 170.306 55.9743C169.685 55.9743 169.202 55.802 168.857 55.4568C168.512 55.1118 168.339 54.6201 168.339 53.982V48.2378C168.339 47.3925 168.206 46.7758 167.939 46.3877C167.671 45.9996 167.218 45.8055 166.58 45.8055C165.838 45.8055 165.26 46.0642 164.846 46.5817C164.432 47.0993 164.225 47.8324 164.225 48.7812V53.982C164.225 55.3103 163.579 55.9743 162.285 55.9743Z" fill="white"/>
<path d="M186.61 60.6331C186.161 60.6331 185.79 60.5122 185.497 60.2708C185.204 60.0292 185.031 59.7146 184.979 59.3262C184.928 58.9381 184.997 58.5285 185.186 58.0973L186.92 54.2677V55.8719L182.34 45.3668C182.168 44.9183 182.112 44.5001 182.172 44.112C182.232 43.7236 182.422 43.4132 182.741 43.1804C183.06 42.9474 183.504 42.831 184.074 42.831C184.54 42.831 184.915 42.9388 185.199 43.1545C185.484 43.37 185.747 43.7798 185.988 44.3834L189.042 52.1459H188.214L191.37 44.3575C191.612 43.7712 191.884 43.37 192.186 43.1545C192.487 42.9388 192.897 42.831 193.415 42.831C193.863 42.831 194.221 42.9474 194.488 43.1804C194.756 43.4132 194.92 43.7194 194.98 44.0989C195.041 44.4784 194.967 44.8924 194.76 45.3409L188.68 59.1321C188.421 59.7188 188.132 60.1155 187.813 60.3226C187.494 60.5295 187.092 60.6331 186.61 60.6331Z" fill="white"/>
<path fill-rule="evenodd" clip-rule="evenodd" d="M24.0268 24.1852C27.5557 20.6566 32.3414 18.6743 37.3317 18.6743C42.322 18.6743 47.1079 20.6566 50.6365 24.1852L50.6368 24.1858C54.1657 27.7144 56.148 32.5003 56.148 37.4903C56.148 42.4806 54.1657 47.2666 50.6368 50.7952L37.3317 64.1003L24.0266 50.7952C20.4979 47.2666 18.5156 42.4806 18.5156 37.4903C18.5156 32.5003 20.4979 27.7144 24.0266 24.1858L24.0268 24.1852ZM28.555 28.7133L28.5544 28.7136C26.2269 31.0414 24.9191 34.1987 24.9191 37.4903C24.9191 40.7823 26.2269 43.9395 28.5544 46.2673L37.3317 55.0443L46.1089 46.2673C48.4368 43.9395 49.7445 40.7823 49.7445 37.4903C49.7445 34.1987 48.4368 31.0414 46.1089 28.7136L46.1084 28.7133C43.7809 26.3855 40.6236 25.0778 37.3317 25.0778C34.0397 25.0778 30.8828 26.3855 28.555 28.7133Z" fill="white"/>
<path fill-rule="evenodd" clip-rule="evenodd" d="M26.6012 53.4675C25.3517 52.218 25.3517 50.1889 26.6012 48.9394C27.8507 47.6899 29.8798 47.6899 31.1293 48.9394L46.4532 64.2633C47.7028 65.5128 47.7028 67.5419 46.4532 68.7914C45.2037 70.0409 43.1746 70.0409 41.9251 68.7914L26.6012 53.4675Z" fill="white"/>
<path fill-rule="evenodd" clip-rule="evenodd" d="M37.3312 15.5206C37.2048 15.5206 36.5762 15.5206 35.9041 14.846C35.6905 14.6316 35.5073 14.3827 35.3654 14.1155C35.2175 13.8373 35.1298 13.5297 35.0438 13.2265C35.0296 13.1767 34.654 11.1236 34.5863 10.7035C34.5465 10.4574 34.2495 8.61624 34.1687 7.61479C34.1041 6.81434 34.1498 6.24471 34.1593 6.12583C34.2381 5.14553 34.4611 4.27744 34.5014 4.11986C34.7345 3.21223 34.7417 3.21529 35.031 2.32381C35.0789 2.17681 35.3428 1.36328 36.0338 0.672255C36.5609 0.145217 36.609 0.199229 37.3284 0.00016314C37.3307 -0.000672102 37.9749 0.177794 37.9805 0.180578C38.6718 0.539454 39.1273 1.28226 39.1994 1.39975C39.2726 1.51891 39.5449 1.96271 39.8573 3.02179C40.1666 4.07058 40.2755 4.61822 40.3033 4.75909C40.5383 5.94152 40.5338 6.65064 40.533 6.8163C40.5224 8.51434 39.7248 12.6736 39.6281 13.1786C39.4397 14.1617 38.8645 14.7394 38.7581 14.846C38.086 15.5206 37.4574 15.5206 37.3312 15.5206Z" fill="#34B6A7"/>
<path fill-rule="evenodd" clip-rule="evenodd" d="M26.4251 18.443C26.316 18.5062 25.7714 18.8205 24.8521 18.5721C24.56 18.4933 24.2768 18.3695 24.0201 18.2091C23.7529 18.042 23.5232 17.8193 23.2971 17.5999C23.2601 17.564 21.9084 15.9737 21.6394 15.6435C21.4821 15.4503 20.3042 14.0045 19.7337 13.1776C19.2774 12.5166 19.0321 12.0002 18.9811 11.8927C18.5591 11.0043 18.318 10.1412 18.2742 9.98419C18.0223 9.08185 18.0301 9.08101 17.8349 8.16419C17.8029 8.01301 17.6247 7.17638 17.8778 6.23228C18.1236 5.31435 18.5638 5.06016 18.6651 5.00169C18.7662 4.94322 19.2064 4.68931 20.1243 4.93515C21.0684 5.18823 21.704 5.76065 21.8187 5.86422C22.5153 6.49148 22.5198 6.48508 23.1754 7.15466C23.3277 7.3103 24.2434 8.24549 24.8459 9.30402C25.6856 10.7796 27.0749 14.7804 27.2433 15.2663C27.5719 16.212 27.3625 16.9997 27.3238 17.1453C27.0791 18.0654 26.5345 18.3798 26.4251 18.443Z" fill="#F25849"/>
<path fill-rule="evenodd" clip-rule="evenodd" d="M18.4424 26.4255C18.3794 26.535 18.0651 27.0795 17.1447 27.3243C16.8523 27.4019 16.545 27.4362 16.2426 27.4256C15.9277 27.4145 15.6176 27.3365 15.3119 27.2597C15.2618 27.2469 13.2962 26.5455 12.8983 26.3941C12.6653 26.3055 10.9224 25.6424 10.0145 25.2117C9.28922 24.8673 8.81842 24.5426 8.72042 24.4752C7.91079 23.9167 7.27044 23.2898 7.15406 23.1759C6.48476 22.5202 6.49088 22.5158 5.86361 21.8192C5.76032 21.7045 5.18763 21.0689 4.93483 20.1248C4.74189 19.4048 4.8126 19.3903 4.9997 18.6678C5.00053 18.6656 5.47718 18.1967 5.48219 18.1934C6.13869 17.7741 7.00957 17.7507 7.14738 17.7471C7.28742 17.7435 7.80778 17.7296 8.88106 17.9885C9.94433 18.2452 10.4728 18.4248 10.6086 18.471C11.7504 18.8585 12.3621 19.2171 12.5052 19.3006C13.9702 20.1587 17.1736 22.9289 17.5626 23.2653C18.3199 23.9204 18.5323 24.7072 18.5715 24.8525C18.8199 25.7718 18.5056 26.3164 18.4424 26.4255Z" fill="#F2B706"/>
<path fill-rule="evenodd" clip-rule="evenodd" d="M15.5205 37.3304C15.5205 37.4568 15.5205 38.0854 14.8459 38.7575C14.6315 38.971 14.3826 39.1542 14.1153 39.2962C13.8369 39.4441 13.5295 39.5318 13.2263 39.6178C13.1765 39.632 11.1235 40.0076 10.7033 40.0752C10.4572 40.115 8.61608 40.4121 7.61462 40.4929C6.81418 40.5574 6.24455 40.5118 6.12566 40.5023C5.14537 40.4235 4.27727 40.2005 4.11941 40.1602C3.21178 39.9271 3.21512 39.9199 2.32364 39.6306C2.17664 39.5827 1.36311 39.3185 0.672092 38.6275C3.98274e-07 37.9554 0 37.4473 0 37.3304C0 37.2137 3.98274e-07 36.7053 0.672092 36.0332C1.36311 35.3422 2.17664 35.078 2.32364 35.0304C3.21512 34.7408 3.21178 34.7339 4.11941 34.5008C4.33045 34.4465 5.59835 34.1211 6.81613 34.1286C8.51417 34.1392 12.6734 34.9365 13.1782 35.0334C14.1615 35.2219 14.7392 35.7971 14.8459 35.9035C15.5205 36.5756 15.5205 37.2042 15.5205 37.3304Z" fill="#34546D"/>
<path fill-rule="evenodd" clip-rule="evenodd" d="M18.4416 48.2356C18.5048 48.345 18.8191 48.8893 18.5708 49.8086C18.492 50.1007 18.3681 50.3841 18.2077 50.6405C18.0407 50.9078 17.8179 51.1375 17.5985 51.3636C17.5626 51.4006 15.9723 52.7523 15.6424 53.0213C15.4489 53.1788 14.0031 54.3565 13.1762 54.9273C12.5155 55.3833 11.9991 55.6286 11.8913 55.6798C11.0032 56.1016 10.1398 56.3427 9.98308 56.3865C9.08046 56.6384 9.07963 56.6306 8.16309 56.8258C8.01163 56.8581 7.175 57.036 6.23117 56.7832C5.51119 56.5902 5.53375 56.5215 5.0017 55.9983C5.00003 55.9964 4.83242 55.3494 4.83214 55.3432C4.79734 54.5651 5.21274 53.7992 5.27844 53.678C5.34498 53.5547 5.59305 53.0973 6.35423 52.2974C7.1079 51.505 7.52775 51.137 7.63577 51.0423C8.54229 50.2474 9.1587 49.8969 9.30264 49.8148C10.7782 48.9751 14.779 47.5861 15.2649 47.4173C16.2106 47.0888 16.9983 47.2985 17.1439 47.3372C18.0643 47.5816 18.3787 48.1262 18.4416 48.2356Z" fill="#84C1D9"/>
<path fill-rule="evenodd" clip-rule="evenodd" d="M56.2194 48.2358C56.2826 48.1264 56.5969 47.5818 57.5174 47.3374C57.8097 47.2594 58.1168 47.2252 58.4191 47.2357C58.7343 47.2469 59.0444 47.3248 59.3501 47.402C59.4003 47.4145 61.3659 48.1158 61.7637 48.2673C61.9967 48.3558 63.7396 49.019 64.6472 49.4497C65.3728 49.7941 65.8433 50.1187 65.9416 50.1864C66.7512 50.7446 67.3916 51.3716 67.5079 51.4857C68.1773 52.1411 68.1709 52.1459 68.7984 52.8422C68.9017 52.9571 69.4744 53.5925 69.7272 54.5366C69.9201 55.2566 69.8494 55.271 69.662 55.9935C69.6615 55.996 69.1848 56.4649 69.1798 56.468C68.5233 56.8872 67.6522 56.9106 67.5144 56.9142C67.3746 56.9181 66.8542 56.9321 65.781 56.6729C64.7177 56.4162 64.189 56.2366 64.0531 56.1907C62.9116 55.8028 62.2997 55.4445 62.1568 55.3607C60.6915 54.5026 57.4881 51.7324 57.0995 51.3961C56.3422 50.7413 56.1295 49.9542 56.0902 49.8088C55.8419 48.8895 56.1565 48.3452 56.2194 48.2358Z" fill="#B174D0"/>
<path fill-rule="evenodd" clip-rule="evenodd" d="M59.1406 37.3302C59.1406 37.2041 59.1406 36.5754 59.8155 35.9033C60.0299 35.6898 60.2788 35.5063 60.5458 35.3646C60.8242 35.2165 61.1318 35.129 61.435 35.0427C61.4846 35.0288 63.5376 34.6532 63.958 34.5853C64.2041 34.5458 66.045 34.2484 67.0465 34.1677C67.8469 34.1031 68.4168 34.149 68.5354 34.1585C69.5157 34.2373 70.3841 34.46 70.5417 34.5007C71.4493 34.7337 71.446 34.7406 72.3374 35.0302C72.4844 35.0778 73.2983 35.342 73.9893 36.0331C74.5163 36.5601 74.4623 36.6083 74.6614 37.3274C74.6619 37.3299 74.4835 37.9742 74.4807 37.9797C74.1218 38.6707 73.3793 39.1265 73.2618 39.1986C73.1423 39.2718 72.6988 39.5441 71.6397 39.8565C70.5907 40.1658 70.043 40.2747 69.9024 40.3025C68.7197 40.5375 68.0106 40.5331 67.8452 40.5319C66.1472 40.5214 61.9877 39.724 61.4829 39.6274C60.4996 39.4389 59.9221 38.8634 59.8155 38.7573C59.1406 38.0852 59.1406 37.4566 59.1406 37.3302Z" fill="#D96C3A"/>
<path fill-rule="evenodd" clip-rule="evenodd" d="M56.2194 26.4255C56.1565 26.3163 55.8419 25.7718 56.0902 24.8524C56.1693 24.5604 56.2929 24.2772 56.4535 24.0205C56.6206 23.7533 56.843 23.5236 57.0627 23.2975C57.0986 23.2605 58.6889 21.9088 59.0188 21.6398C59.2121 21.4825 60.6579 20.3046 61.4848 19.7338C62.1457 19.2778 62.6622 19.0325 62.7696 18.9815C63.658 18.5595 64.5214 18.3183 64.6781 18.2746C65.5808 18.0227 65.5813 18.0305 66.4981 17.8353C66.6493 17.803 67.4862 17.6251 68.4301 17.8779C69.15 18.0708 69.1272 18.1396 69.6593 18.663C69.6609 18.6647 69.8288 19.312 69.8291 19.3179C69.8639 20.096 69.4485 20.8619 69.3828 20.9833C69.316 21.1064 69.0679 21.5638 68.307 22.364C67.5533 23.1563 67.1332 23.5244 67.0255 23.6188C66.1187 24.4137 65.5025 24.7645 65.3586 24.8463C63.8827 25.686 59.8819 27.075 59.3964 27.2437C58.4506 27.5723 57.6627 27.3629 57.5174 27.3242C56.5969 27.0795 56.2826 26.5349 56.2194 26.4255Z" fill="#6A4C93"/>
<path fill-rule="evenodd" clip-rule="evenodd" d="M48.2342 18.4419C48.1247 18.3787 47.5804 18.0643 47.3357 17.1442C47.258 16.8516 47.2235 16.5445 47.2344 16.2421C47.2455 15.9272 47.3232 15.6171 47.4003 15.3114C47.4128 15.2613 48.1142 13.2954 48.2656 12.8975C48.3544 12.6645 49.0173 10.9216 49.4483 10.014C49.7924 9.28871 50.1171 8.81792 50.1847 8.71992C50.7429 7.91029 51.3702 7.26994 51.4841 7.15356C52.1397 6.48397 52.1442 6.49038 52.8405 5.86311C52.9555 5.75954 53.5911 5.18712 54.5349 4.93404C55.2549 4.7411 55.2697 4.8121 55.9919 4.99919C55.9944 4.99975 56.4632 5.47667 56.4666 5.48169C56.8856 6.13819 56.909 7.00907 56.9126 7.14688C56.9165 7.28692 56.9304 7.80728 56.6712 8.88056C56.4148 9.94354 56.2352 10.4723 56.189 10.6081C55.8012 11.7499 55.4428 12.3616 55.359 12.5044C54.501 13.9697 51.7308 17.1731 51.3944 17.5621C50.7396 18.3193 49.9528 18.5318 49.8075 18.571C48.8879 18.8194 48.3436 18.5051 48.2342 18.4419Z" fill="#EC5B88"/>
</svg>
